<svg xmlns="http://www.w3.org/2000/svg" version="1.1" xmlns:xlink="http://www.w3.org/1999/xlink" xmlns:svgjs="http://svgjs.dev/svgjs" viewBox="0 0 800 800"><defs><linearGradient x1="50%" y1="0%" x2="50%" y2="100%" id="ggglitch-grad"><stop stop-color="hsl(184, 74%, 44%)" stop-opacity="1" offset="45%"></stop><stop stop-color="hsl(332, 87%, 70%)" stop-opacity="1" offset="100%"></stop></linearGradient><clipPath id="SvgjsClipPath1462"><rect width="18.6046511627907" height="800" x="0" y="0"></rect><rect width="18.6046511627907" height="800" x="37.2093023255814" y="0"></rect><rect width="18.6046511627907" height="800" x="74.4186046511628" y="0"></rect><rect width="18.6046511627907" height="800" x="111.62790697674419" y="0"></rect><rect width="18.6046511627907" height="800" x="148.8372093023256" y="0"></rect><rect width="18.6046511627907" height="800" x="186.046511627907" y="0"></rect><rect width="18.6046511627907" height="800" x="223.25581395348837" y="0"></rect><rect width="18.6046511627907" height="800" x="260.4651162790698" y="0"></rect><rect width="18.6046511627907" height="800" x="297.6744186046512" y="0"></rect><rect width="18.6046511627907" height="800" x="334.8837209302326" y="0"></rect><rect width="18.6046511627907" height="800" x="372.093023255814" y="0"></rect><rect width="18.6046511627907" height="800" x="409.3023255813954" y="0"></rect><rect width="18.6046511627907" height="800" x="446.51162790697674" y="0"></rect><rect width="18.6046511627907" height="800" x="483.72093023255815" y="0"></rect><rect width="18.6046511627907" height="800" x="520.9302325581396" y="0"></rect><rect width="18.6046511627907" height="800" x="558.139534883721" y="0"></rect><rect width="18.6046511627907" height="800" x="595.3488372093024" y="0"></rect><rect width="18.6046511627907" height="800" x="632.5581395348837" y="0"></rect><rect width="18.6046511627907" height="800" x="669.7674418604652" y="0"></rect><rect width="18.6046511627907" height="800" x="706.9767441860465" y="0"></rect><rect width="18.6046511627907" height="800" x="744.186046511628" y="0"></rect><rect width="18.6046511627907" height="800" x="781.3953488372093" y="0"></rect><rect width="18.6046511627907" height="800" x="818.6046511627908" y="0"></rect><rect width="18.6046511627907" height="800" x="855.8139534883721" y="0"></rect><rect width="18.6046511627907" height="800" x="893.0232558139535" y="0"></rect><rect width="18.6046511627907" height="800" x="930.232558139535" y="0"></rect><rect width="18.6046511627907" height="800" x="967.4418604651163" y="0"></rect><rect width="18.6046511627907" height="800" x="1004.6511627906978" y="0"></rect><rect width="18.6046511627907" height="800" x="1041.860465116279" y="0"></rect><rect width="18.6046511627907" height="800" x="1079.0697674418604" y="0"></rect><rect width="18.6046511627907" height="800" x="1116.279069767442" y="0"></rect><rect width="18.6046511627907" height="800" x="1153.4883720930234" y="0"></rect><rect width="18.6046511627907" height="800" x="1190.6976744186047" y="0"></rect><rect width="18.6046511627907" height="800" x="1227.906976744186" y="0"></rect><rect width="18.6046511627907" height="800" x="1265.1162790697674" y="0"></rect><rect width="18.6046511627907" height="800" x="1302.325581395349" y="0"></rect><rect width="18.6046511627907" height="800" x="1339.5348837209303" y="0"></rect><rect width="18.6046511627907" height="800" x="1376.7441860465117" y="0"></rect><rect width="18.6046511627907" height="800" x="1413.953488372093" y="0"></rect><rect width="18.6046511627907" height="800" x="1451.1627906976746" y="0"></rect><rect width="18.6046511627907" height="800" x="1488.372093023256" y="0"></rect><rect width="18.6046511627907" height="800" x="1525.5813953488373" y="0"></rect><rect width="18.6046511627907" height="800" x="1562.7906976744187" y="0"></rect><rect width="18.6046511627907" height="800" x="1600" y="0"></rect></clipPath><clipPath id="SvgjsClipPath1463"><rect width="18.6046511627907" height="800" x="18.6046511627907" y="0"></rect><rect width="18.6046511627907" height="800" x="55.81395348837209" y="0"></rect><rect width="18.6046511627907" height="800" x="93.02325581395348" y="0"></rect><rect width="18.6046511627907" height="800" x="130.2325581395349" y="0"></rect><rect width="18.6046511627907" height="800" x="167.4418604651163" y="0"></rect><rect width="18.6046511627907" height="800" x="204.65116279069767" y="0"></rect><rect width="18.6046511627907" height="800" x="241.86046511627907" y="0"></rect><rect width="18.6046511627907" height="800" x="279.0697674418605" y="0"></rect><rect width="18.6046511627907" height="800" x="316.2790697674419" y="0"></rect><rect width="18.6046511627907" height="800" x="353.4883720930233" y="0"></rect><rect width="18.6046511627907" height="800" x="390.6976744186047" y="0"></rect><rect width="18.6046511627907" height="800" x="427.90697674418607" y="0"></rect><rect width="18.6046511627907" height="800" x="465.1162790697675" y="0"></rect><rect width="18.6046511627907" height="800" x="502.3255813953489" y="0"></rect><rect width="18.6046511627907" height="800" x="539.5348837209303" y="0"></rect><rect width="18.6046511627907" height="800" x="576.7441860465117" y="0"></rect><rect width="18.6046511627907" height="800" x="613.953488372093" y="0"></rect><rect width="18.6046511627907" height="800" x="651.1627906976745" y="0"></rect><rect width="18.6046511627907" height="800" x="688.3720930232558" y="0"></rect><rect width="18.6046511627907" height="800" x="725.5813953488373" y="0"></rect><rect width="18.6046511627907" height="800" x="762.7906976744187" y="0"></rect><rect width="18.6046511627907" height="800" x="800.0000000000001" y="0"></rect><rect width="18.6046511627907" height="800" x="837.2093023255815" y="0"></rect><rect width="18.6046511627907" height="800" x="874.4186046511628" y="0"></rect><rect width="18.6046511627907" height="800" x="911.6279069767443" y="0"></rect><rect width="18.6046511627907" height="800" x="948.8372093023256" y="0"></rect><rect width="18.6046511627907" height="800" x="986.0465116279071" y="0"></rect><rect width="18.6046511627907" height="800" x="1023.2558139534884" y="0"></rect><rect width="18.6046511627907" height="800" x="1060.4651162790697" y="0"></rect><rect width="18.6046511627907" height="800" x="1097.6744186046512" y="0"></rect><rect width="18.6046511627907" height="800" x="1134.8837209302326" y="0"></rect><rect width="18.6046511627907" height="800" x="1172.093023255814" y="0"></rect><rect width="18.6046511627907" height="800" x="1209.3023255813953" y="0"></rect><rect width="18.6046511627907" height="800" x="1246.5116279069766" y="0"></rect><rect width="18.6046511627907" height="800" x="1283.7209302325582" y="0"></rect><rect width="18.6046511627907" height="800" x="1320.9302325581396" y="0"></rect><rect width="18.6046511627907" height="800" x="1358.139534883721" y="0"></rect><rect width="18.6046511627907" height="800" x="1395.3488372093022" y="0"></rect><rect width="18.6046511627907" height="800" x="1432.5581395348838" y="0"></rect><rect width="18.6046511627907" height="800" x="1469.7674418604652" y="0"></rect><rect width="18.6046511627907" height="800" x="1506.9767441860465" y="0"></rect><rect width="18.6046511627907" height="800" x="1544.1860465116279" y="0"></rect><rect width="18.6046511627907" height="800" x="1581.3953488372092" y="0"></rect></clipPath></defs><g stroke-width="47" stroke="url(#ggglitch-grad)" fill="none"><polygon points="-23.5,23.5 23.5,-23.5 823.5,776.5 776.5,823.5" stroke="none" fill="url(#ggglitch-grad)" clip-path="url(&quot;#SvgjsClipPath1462&quot;)" opacity="0.4" transform="translate(0 -592)"></polygon><polygon points="-23.5,23.5 23.5,-23.5 823.5,776.5 776.5,823.5" stroke="none" fill="url(#ggglitch-grad)" clip-path="url(&quot;#SvgjsClipPath1463&quot;)" transform="translate(0 -694)"></polygon><polygon points="-23.5,23.5 23.5,-23.5 823.5,776.5 776.5,823.5" stroke="none" fill="url(#ggglitch-grad)" clip-path="url(&quot;#SvgjsClipPath1462&quot;)" opacity="0.4" transform="translate(0 -472)"></polygon><polygon points="-23.5,23.5 23.5,-23.5 823.5,776.5 776.5,823.5" stroke="none" fill="url(#ggglitch-grad)" clip-path="url(&quot;#SvgjsClipPath1463&quot;)" transform="translate(0 -574)"></polygon><polygon points="-23.5,23.5 23.5,-23.5 823.5,776.5 776.5,823.5" stroke="none" fill="url(#ggglitch-grad)" clip-path="url(&quot;#SvgjsClipPath1462&quot;)" opacity="0.4" transform="translate(0 -352)"></polygon><polygon points="-23.5,23.5 23.5,-23.5 823.5,776.5 776.5,823.5" stroke="none" fill="url(#ggglitch-grad)" clip-path="url(&quot;#SvgjsClipPath1463&quot;)" transform="translate(0 -454)"></polygon><polygon points="-23.5,23.5 23.5,-23.5 823.5,776.5 776.5,823.5" stroke="none" fill="url(#ggglitch-grad)" clip-path="url(&quot;#SvgjsClipPath1462&quot;)" opacity="0.4" transform="translate(0 -232)"></polygon><polygon points="-23.5,23.5 23.5,-23.5 823.5,776.5 776.5,823.5" stroke="none" fill="url(#ggglitch-grad)" clip-path="url(&quot;#SvgjsClipPath1463&quot;)" transform="translate(0 -334)"></polygon><polygon points="-23.5,23.5 23.5,-23.5 823.5,776.5 776.5,823.5" stroke="none" fill="url(#ggglitch-grad)" clip-path="url(&quot;#SvgjsClipPath1462&quot;)" opacity="0.4" transform="translate(0 -112)"></polygon><polygon points="-23.5,23.5 23.5,-23.5 823.5,776.5 776.5,823.5" stroke="none" fill="url(#ggglitch-grad)" clip-path="url(&quot;#SvgjsClipPath1463&quot;)" transform="translate(0 -214)"></polygon><polygon points="-23.5,23.5 23.5,-23.5 823.5,776.5 776.5,823.5" stroke="none" fill="url(#ggglitch-grad)" clip-path="url(&quot;#SvgjsClipPath1462&quot;)" opacity="0.4" transform="translate(0 8)"></polygon><polygon points="-23.5,23.5 23.5,-23.5 823.5,776.5 776.5,823.5" stroke="none" fill="url(#ggglitch-grad)" clip-path="url(&quot;#SvgjsClipPath1463&quot;)" transform="translate(0 -94)"></polygon><polygon points="-23.5,23.5 23.5,-23.5 823.5,776.5 776.5,823.5" stroke="none" fill="url(#ggglitch-grad)" clip-path="url(&quot;#SvgjsClipPath1462&quot;)" opacity="0.4" transform="translate(0 128)"></polygon><polygon points="-23.5,23.5 23.5,-23.5 823.5,776.5 776.5,823.5" stroke="none" fill="url(#ggglitch-grad)" clip-path="url(&quot;#SvgjsClipPath1463&quot;)" transform="translate(0 26)"></polygon><polygon points="-23.5,23.5 23.5,-23.5 823.5,776.5 776.5,823.5" stroke="none" fill="url(#ggglitch-grad)" clip-path="url(&quot;#SvgjsClipPath1462&quot;)" opacity="0.4" transform="translate(0 248)"></polygon><polygon points="-23.5,23.5 23.5,-23.5 823.5,776.5 776.5,823.5" stroke="none" fill="url(#ggglitch-grad)" clip-path="url(&quot;#SvgjsClipPath1463&quot;)" transform="translate(0 146)"></polygon><polygon points="-23.5,23.5 23.5,-23.5 823.5,776.5 776.5,823.5" stroke="none" fill="url(#ggglitch-grad)" clip-path="url(&quot;#SvgjsClipPath1462&quot;)" opacity="0.4" transform="translate(0 368)"></polygon><polygon points="-23.5,23.5 23.5,-23.5 823.5,776.5 776.5,823.5" stroke="none" fill="url(#ggglitch-grad)" clip-path="url(&quot;#SvgjsClipPath1463&quot;)" transform="translate(0 266)"></polygon><polygon points="-23.5,23.5 23.5,-23.5 823.5,776.5 776.5,823.5" stroke="none" fill="url(#ggglitch-grad)" clip-path="url(&quot;#SvgjsClipPath1462&quot;)" opacity="0.4" transform="translate(0 488)"></polygon><polygon points="-23.5,23.5 23.5,-23.5 823.5,776.5 776.5,823.5" stroke="none" fill="url(#ggglitch-grad)" clip-path="url(&quot;#SvgjsClipPath1463&quot;)" transform="translate(0 386)"></polygon><polygon points="-23.5,23.5 23.5,-23.5 823.5,776.5 776.5,823.5" stroke="none" fill="url(#ggglitch-grad)" clip-path="url(&quot;#SvgjsClipPath1462&quot;)" opacity="0.4" transform="translate(0 608)"></polygon><polygon points="-23.5,23.5 23.5,-23.5 823.5,776.5 776.5,823.5" stroke="none" fill="url(#ggglitch-grad)" clip-path="url(&quot;#SvgjsClipPath1463&quot;)" transform="translate(0 506)"></polygon><polygon points="-23.5,23.5 23.5,-23.5 823.5,776.5 776.5,823.5" stroke="none" fill="url(#ggglitch-grad)" clip-path="url(&quot;#SvgjsClipPath1462&quot;)" opacity="0.4" transform="translate(0 728)"></polygon><polygon points="-23.5,23.5 23.5,-23.5 823.5,776.5 776.5,823.5" stroke="none" fill="url(#ggglitch-grad)" clip-path="url(&quot;#SvgjsClipPath1463&quot;)" transform="translate(0 626)"></polygon></g></svg>